<svg width="2214" height="344" viewBox="0 0 2214 344" fill="none" xmlns="http://www.w3.org/2000/svg">
<path fill-rule="evenodd" clip-rule="evenodd" d="M146.065 61.093C151.882 66.1174 152.021 85.116 141.439 90.8858L0.226618 176.11L0.222802 254.71L49.7012 284.486L51.8802 219.031L285.463 82.7329L155.3 2.62211C148.153 -0.262156 150.631 -2.2433 140.24 4.90091L2.04049 84.9691C-0.360414 87.2975 0.0256411 90.0298 0.0192811 94.3654C0.010377 100.683 0.351226 136.718 0.351296 140.03L0.351272 141.355C45.0896 115.604 102.22 87.9939 146.065 61.093Z" fill="white"/>
<path fill-rule="evenodd" clip-rule="evenodd" d="M86.5523 221.187L142.42 253.671C148.975 258.415 152.927 256.765 158.757 252.738L241.733 205.514C244.285 204.623 244.119 203.916 246.212 203.111C249.085 206.652 248.657 213.887 248.596 219.575C248.495 228.837 245.695 231.225 236.004 234.779L157.401 281.348C145.804 288.141 147.078 282.573 135.27 277.486L82.1044 247.536C76.2835 244.043 77.2773 244.705 75.2898 243.38C75.2898 274.849 75.5504 278.162 75.5504 291.04C75.5504 305.11 76.7848 302.393 85.2278 308.102L141.133 340.825C145.572 343.844 148.808 344.162 153.365 342.602L292.893 262.806C300.004 259.767 300.025 253.678 300.019 246.165C299.961 198.275 299.216 144.005 299.216 96.3049L291.226 101.057L92.8461 216.549C89.3615 219.013 88.2086 219.862 88.2086 219.862L86.5523 221.187Z" fill="white"/>
<path d="M367.802 270V86.248H537.007V120.191H401.745V161.025H510.465V195.223H401.745V236.057H537.007V270H367.802ZM628.532 270V120.191H553.5V86.248H737.252V120.191H662.475V270H628.532ZM756.594 270V86.248H790.282V161.025H910.742V86.248H944.43V270H910.742V195.223H790.282V270H756.594ZM973.929 270V86.248H1143.13V120.191H1007.87V161.025H1116.59V195.223H1007.87V236.057H1143.13V270H973.929ZM1315.31 270L1259.92 203.9H1304.08L1352.06 260.557V270H1315.31ZM1168.81 270V86.5032H1316.84C1323.3 86.5032 1329.26 88.1196 1334.7 91.3522C1340.15 94.5849 1344.48 98.9235 1347.72 104.368C1350.95 109.642 1352.57 115.512 1352.57 121.978V171.489C1352.57 177.954 1350.95 183.909 1347.72 189.353C1344.48 194.798 1340.15 199.136 1334.7 202.369C1329.26 205.432 1323.3 206.963 1316.84 206.963L1202.5 207.218V270H1168.81ZM1205.56 173.02H1315.31C1316.16 173.02 1316.92 172.765 1317.6 172.254C1318.28 171.744 1318.62 171.063 1318.62 170.212V123.254C1318.62 122.403 1318.28 121.722 1317.6 121.212C1316.92 120.531 1316.16 120.191 1315.31 120.191H1205.56C1204.71 120.191 1203.95 120.531 1203.27 121.212C1202.76 121.722 1202.5 122.403 1202.5 123.254V170.212C1202.5 171.063 1202.76 171.744 1203.27 172.254C1203.95 172.765 1204.71 173.02 1205.56 173.02ZM1473.25 270L1366.83 86.248H1406.13L1488.31 229.166L1570.74 86.248H1609.79L1503.36 270H1473.25ZM1628.65 270V86.248H1797.86V120.191H1662.6V161.025H1771.32V195.223H1662.6V236.057H1797.86V270H1628.65ZM1858.25 270C1851.78 270 1845.83 268.384 1840.38 265.151C1835.11 261.918 1830.86 257.665 1827.62 252.39C1824.39 246.946 1822.77 240.991 1822.77 234.526V220.489H1856.46V232.994C1856.46 233.845 1856.72 234.611 1857.23 235.291C1857.91 235.802 1858.67 236.057 1859.52 236.057H1969.52C1970.37 236.057 1971.05 235.802 1971.56 235.291C1972.24 234.611 1972.58 233.845 1972.58 232.994V198.03C1972.58 197.18 1972.24 196.499 1971.56 195.989C1971.05 195.478 1970.37 195.223 1969.52 195.223H1858.25C1851.78 195.223 1845.83 193.607 1840.38 190.374C1835.11 187.141 1830.86 182.888 1827.62 177.614C1824.39 172.169 1822.77 166.129 1822.77 159.494V121.722C1822.77 115.257 1824.39 109.387 1827.62 104.113C1830.86 98.6683 1835.11 94.3297 1840.38 91.097C1845.83 87.8644 1851.78 86.248 1858.25 86.248H1971.05C1977.52 86.248 1983.39 87.8644 1988.66 91.097C1994.11 94.3297 1998.44 98.6683 2001.68 104.113C2004.91 109.387 2006.53 115.257 2006.53 121.722V135.759H1972.58V123.254C1972.58 122.403 1972.24 121.722 1971.56 121.212C1971.05 120.531 1970.37 120.191 1969.52 120.191H1859.52C1858.67 120.191 1857.91 120.531 1857.23 121.212C1856.72 121.722 1856.46 122.403 1856.46 123.254V158.218C1856.46 159.068 1856.72 159.749 1857.23 160.259C1857.91 160.77 1858.67 161.025 1859.52 161.025H1971.05C1977.52 161.025 1983.39 162.641 1988.66 165.874C1994.11 169.107 1998.44 173.445 2001.68 178.89C2004.91 184.164 2006.53 190.119 2006.53 196.754V234.526C2006.53 240.991 2004.91 246.946 2001.68 252.39C1998.44 257.665 1994.11 261.918 1988.66 265.151C1983.39 268.384 1977.52 270 1971.05 270H1858.25ZM2100.23 270V120.191H2025.2V86.248H2208.95V120.191H2134.18V270H2100.23Z" fill="white"/>
</svg>
