<svg version="1.2" xmlns="http://www.w3.org/2000/svg" viewBox="0 0 977 152" width="977" height="152"><style></style><path  d="m114.4 88.5l-10.2-1.9q-1.3 5-3.1 9.4-1.8 4.2-4.8 7.6-2.8 3.3-7 5.2-4.3 2-9.9 2-13.3 0-20.9-10.6-7.6-10.7-7.6-32.1 0-21 7.3-31.9 7.4-10.8 18.9-10.8 10.9 0 16.7 5.8 5.8 5.7 8.7 17.3l10.5-3.1q-3.6-14.4-12.2-22-8.4-7.6-22.3-7.6-18.4 0-28.7 13.8-10.2 13.7-10.2 38.5 0 25.9 10.6 39.2 10.6 13.1 28.3 13.1 15 0 23.6-8.3 8.7-8.5 12.3-23.6zm13.5-28.7l8.9 4.6q1.8-4.5 6.5-7.9 4.6-3.5 12.2-3.5 7.1 0 11 3.3 4.1 3.2 4.1 10.1v4q-24.5 4.3-34.7 11.1-10.1 6.8-10.1 18.7 0 9.6 5.9 15 6.1 5.2 14.9 5.2 7.7 0 13.7-3.2 6.1-3.4 10.6-8.4l1.1 10.2h10.5q-0.9-3.2-1.3-6.8-0.4-3.5-0.4-9v-36.9q0-5.8-2.1-10-2.2-4.3-5.8-7-3.5-2.6-8.1-3.8-4.5-1.2-9.4-1.2-9.7 0-16.8 4.3-6.9 4.3-10.7 11.2zm42.7 19.6v20.1q-4.5 5.3-10.8 8.8-6.4 3.4-11.7 3.4-4.6 0-8.4-3.3-3.8-3.2-3.8-8 0-15 34.7-21zm29.6-33.7v73.3h10.2v-40.6q3.8-11.9 9.3-17.6 5.6-6 14.8-6.1v-10.1q-8.6 0-14 3.8-5.3 3.8-9.8 11.8h-0.3v-14.5zm51.6 0v73.3h10.1v-73.3zm10.2-29.9h-10.2v12.1h10.2zm25.9 84.6l-8 6.1q5.1 6.6 12.8 10.3 7.8 3.6 16.5 3.6 10.7 0 18.2-5.6 7.5-5.6 7.5-15.8 0-5.5-2.3-9.3-2.1-3.9-5.7-6.5-3.6-2.5-7.5-3.9-4-1.6-10-3.4-8.8-2.6-13-5-4.1-2.4-4.1-7 0-4.9 3.4-7.9 3.5-3 9.9-3 5.7 0 10.1 2.6 4.4 2.4 8.8 7.7l7-6.2q-3.7-5.5-10.7-9-7.1-3.7-14.4-3.8-10.9 0-17.5 5.2-6.5 5.2-6.7 14.5 0 5.3 1.9 8.9 2.1 3.5 5.5 5.9 3.4 2.3 7.2 3.8 3.8 1.5 9.6 3.2 4.5 1.2 7.5 2.3 2.9 1 5.2 2.4 5.6 3.4 5.6 9.1 0 5-4.1 8.6-3.9 3.5-11.7 3.5-6.6 0-11.9-3-5.4-2.9-9.1-8.3zm62.6 0l-8 6.1q5.1 6.6 12.8 10.3 7.8 3.6 16.5 3.6 10.7 0 18.2-5.6 7.5-5.6 7.5-15.8 0-5.5-2.3-9.3-2.1-3.9-5.7-6.5-3.6-2.5-7.5-3.9-4-1.6-10-3.4-8.8-2.6-13-5-4.1-2.4-4.1-7 0-4.9 3.4-7.9 3.5-3 9.9-3 5.7 0 10.1 2.6 4.4 2.4 8.8 7.7l7-6.2q-3.7-5.5-10.7-9-7.1-3.7-14.4-3.8-10.8 0-17.5 5.2-6.5 5.2-6.7 14.5 0 5.3 1.9 8.9 2.1 3.5 5.5 5.9 3.4 2.3 7.2 3.8 3.8 1.5 9.6 3.2 4.5 1.2 7.5 2.3 2.9 1 5.2 2.4 5.6 3.4 5.6 9.1 0 5-4 8.6-4 3.5-11.8 3.5-6.6 0-11.9-3-5.4-2.9-9.1-8.3zm59.3-40.6l8.8 4.7q1.9-4.6 6.5-7.9 4.7-3.6 12.3-3.6 7 0 11 3.3 4.1 3.2 4.1 10.1v4q-24.6 4.4-34.7 11.1-10.2 6.8-10.2 18.8 0 9.6 6 14.9 6 5.2 14.9 5.2 7.6 0 13.7-3.2 6.1-3.4 10.6-8.3l1.1 10.1h10.4q-0.8-3.2-1.2-6.7-0.5-3.6-0.5-9.1v-36.9q0-5.8-2.1-10-2.1-4.2-5.8-6.9-3.5-2.7-8-3.8-4.5-1.3-9.4-1.3-9.8 0-16.8 4.4-6.9 4.2-10.7 11.1zm42.7 19.6v20.2q-4.5 5.2-10.9 8.7-6.3 3.4-11.7 3.4-4.5 0-8.3-3.2-3.8-3.3-3.8-8.1 0-14.9 34.7-21zm78-62.2v101.8h31.5q10.1 0 17.1-1.9 7.2-2.2 11.6-5.8 4.3-3.8 6.3-8.8 2-4.9 2-10.8 0-9.5-5.5-16.5-5.4-7.1-14.1-9.2l-0.2-0.3q9.1-3.1 13.2-8.9 4-5.9 4-14.5 0-10.7-7.7-17.9-7.8-7.2-20.7-7.2zm11.2 92.2v-38.9h19.5q12.1 0 19.3 5.5 7.2 5.4 7.2 15.1 0 18.3-24.8 18.3zm0-48.5v-34.1h24.2q19.2 0 19.2 16.8 0 7.2-5.9 12.3-5.8 5-17.8 5zm75.6-1.1l8.9 4.7q1.8-4.6 6.5-7.9 4.6-3.6 12.2-3.6 7.1 0 11 3.3 4.1 3.2 4.1 10.1v4q-24.5 4.4-34.7 11.1-10.1 6.8-10.1 18.8 0 9.6 5.9 14.9 6.1 5.2 15 5.2 7.6 0 13.6-3.2 6.1-3.4 10.6-8.3l1.1 10.1h10.5q-0.9-3.2-1.3-6.7-0.4-3.6-0.4-9.1v-36.9q0-5.8-2.1-10-2.1-4.2-5.8-6.9-3.5-2.7-8.1-3.8-4.5-1.3-9.4-1.3-9.7 0-16.8 4.4-6.9 4.2-10.7 11.1zm42.7 19.6v20.2q-4.5 5.2-10.8 8.7-6.4 3.4-11.7 3.4-4.5 0-8.3-3.2-3.9-3.3-3.9-8.1 0-14.9 34.7-21zm29.6-33.7v73.3h10.2v-40.6q3.8-11.8 9.3-17.6 5.6-5.9 14.8-6.1v-10.1q-8.6 0-14 3.8-5.3 3.8-9.8 11.8h-0.3v-14.5zm59.8 0h-10.2v73.3h10.2v-54.8q4.1-4.4 9.8-7.8 6-3.4 11.2-3.4 5.8 0 8.9 3 3.1 3 3.1 10v53h10.1v-53.3q0-11-6-16.2-6.1-5.2-15.1-5.2-5.9 0-11.6 3.1-5.5 3-10.1 8.2h-0.3zm121.4 57.6l-7.9-4q-3.3 5.7-8.5 9.1-5.2 3.3-11.8 3.3-9.2 0-15.5-7.6-6.2-7.8-6.2-19.8h47.6v-6.8q0-16.6-7.9-24.9-7.7-8.3-20-8.3-13.7 0-21.9 10.3-8 10.1-8 27.7 0 9.8 2.5 17.1 2.7 7.2 7.1 11.8 4.5 4.7 10.2 7 5.7 2.2 12.1 2.2 5.9 0 10.4-1.4 4.7-1.4 7.9-3.8 3.3-2.4 5.5-5.2 2.3-3 4.4-6.7zm-12.4-27.7h-37.3q0.8-10.5 5.7-16.5 5.1-6.1 14.1-6.1 8.2 0 12.8 6.2 4.7 6.1 4.7 16.4zm77.5-29.9h-10.7l-17.2 56h-0.3l-19.7-56h-10.7l25.5 74.1q-1.3 5.7-3.5 9.3-2.2 3.6-4.8 5.4-2.7 1.7-5.4 2.3-2.5 0.5-5.5 0.5-1.8 0-4.5-0.3-0.8-0.1-1-0.1v8.3q0.7 0.2 1.6 0.3 3.2 0.6 5.7 0.6 8.2 0 14.6-4.5 6.5-4.7 10.1-16.1z"/></svg>