<svg width="611" height="700" viewBox="0 0 611 700" fill="none" xmlns="http://www.w3.org/2000/svg">
<path fill-rule="evenodd" clip-rule="evenodd" d="M297.436 124.405C309.281 134.636 309.563 173.324 288.017 185.073L0.461468 358.617L0.453698 518.673L101.208 579.306L105.645 446.019L581.295 168.471L316.241 5.33947C301.688 -0.533834 306.733 -4.56809 285.574 9.97984L4.15511 173.025C-0.733921 177.766 0.0522136 183.33 0.0392625 192.159C0.021131 205.023 0.715211 278.401 0.715353 285.147L0.715304 287.845C91.817 235.407 208.152 179.184 297.436 124.405Z" fill="url(#paint0_linear_308_409)"/>
<path fill-rule="evenodd" clip-rule="evenodd" d="M176.248 450.408L290.014 516.556C303.361 526.216 311.409 522.858 323.28 514.656L492.246 418.493C497.443 416.68 497.106 415.238 501.367 413.6C507.218 420.81 506.347 435.544 506.221 447.126C506.015 465.986 500.314 470.849 480.581 478.087L320.519 572.916C296.905 586.749 299.498 575.41 275.454 565.052L167.191 504.064C155.338 496.95 157.361 498.3 153.314 495.601C153.314 559.682 153.845 566.428 153.845 592.652C153.845 621.304 156.359 615.771 173.551 627.396L287.392 694.031C296.432 700.177 303.022 700.826 312.301 697.649L596.425 535.159C610.906 528.971 610.949 516.571 610.936 501.272C610.818 403.753 609.3 293.241 609.3 196.108L593.03 205.786L189.065 440.964C181.969 445.982 179.621 447.709 179.621 447.709L176.248 450.408Z" fill="url(#paint1_linear_308_409)"/>
<defs>
<linearGradient id="paint0_linear_308_409" x1="98.8383" y1="-28.4893" x2="390.404" y2="593.633" gradientUnits="userSpaceOnUse">
<stop stop-color="#AC11BC"/>
<stop offset="0.752002" stop-color="#4514C6"/>
</linearGradient>
<linearGradient id="paint1_linear_308_409" x1="231.124" y1="171.351" x2="500.217" y2="691.507" gradientUnits="userSpaceOnUse">
<stop stop-color="#AC11BC"/>
<stop offset="0.752002" stop-color="#4514C6"/>
</linearGradient>
</defs>
</svg>
